<?xml version="1.0" encoding="UTF-8"?>
<svg enable-background="new 0 0 271.585 243.289" viewBox="0 0 271.585 243.289" xmlns="http://www.w3.org/2000/svg">
 <path d="m143.47.086c.953.496 7.848,1.16 7.32,2.364-2.218,5.071-6.006,10.604-5.764,16.207 .448,10.358.32,20.722.751,31.074 .447,10.746 1.012,21.411 2.857,32.019 .348,2.003-.726,3.027-.997,5.021-.231,1.7.213,3.456-.071,5.175-.269,1.628 2.529,2.136 1.078,5.032-1.206,2.407-1.951,4.596 1.149,5.751-1.494,1.682-1.438,3.633-1.438,5.749 0,2.574 1.141,3.894 1.295,6.325 .151,2.383-2.248,6.278.718,7.764 1.299.65-1.176,4.914-1.365,6.253-.406,2.867.983,4.179 1.222,6.828 .246,2.734-1.271,5.242-.358,7.979 .514,1.544.604,1.456.503,2.803-.08,1.067-.652,2.202-.791,3.307-.257,2.043-.139,6.52 2.803,5.606-3.664,6.794-.896,14.578-1.438,21.852 1.736-.107.863,9.813.863,11.788 .488-.418.826-.246 1.438-.576-2.135,3.548-2.276,6.511-1.438,10.352 .853,3.904-1.341,8.965 1.438,12.362-1.889.898-2.45,2.92-2.301,4.888 .263,3.471 1.372,4.942-.245,8.504-.554,1.22-3.723,8.747-3.779,8.747-1.921,0-3.386-7.123-3.738-8.77-.727-3.395-1.255-6.979-1.46-10.445-.066-1.121.236-3.96-.638-4.659-1.714-1.372-2.066-3.02-1.064-5.021 .771-1.54 1.984-3.144 1.581-4.96-.387-1.741-2.054-2.684-2.443-4.386-.987-4.313 3.001-7.025-1.151-10.925 2.357-.97 2.131-3.65 1.87-5.75-.341-2.74-.387-3.709-2.732-5.175 2.702-1.849 3.014-6.96.585-9.083-3.208-2.805 3.543-8.733-.565-12.098-2.078-1.701 2.443-6.207.841-9.296-.355-.687-1.854-.618-2.299-1.582-.521-1.129.373-2.674.719-3.737 .878-2.7 1.353-4.895-1.869-6.182 3.487-2.058 3.021-9.221-.863-10.351 1.609-1.102 2.129-2.888 2.156-4.743 .014-.949-.06-1.847-.431-2.732-.505-1.204-1.869-1.331-1.869-2.803 0-2.41 2.39-4.352 1.15-6.828-1.14-2.276-1.677-2.063-.575-4.816 .456-1.139 1.217-4.234-.144-4.744-1.823-.683-1.88-1.499-.504-2.875 1.204-1.204-.144-7.552-.229-8.989-1-16.823-2-33.645-3.001-50.467l-1.056-17.756c-.214-3.608-4.143-6.113-6.28-8.825-.488-.619-1.03-1.164-1.581-1.725 3.179-1.317 6.622-2.997 10.063-3.45 1.939-.255 3.572.11 5.462.431 2.538.431 3.879.211 6.615-.432"/>
 <path d="m136.569,2.673c-.044,3.089 4.183.534 5.464,0-1.028,1.608-.571,5.941-2.588,6.613-3.873,1.29-2.309-3.742-4.816-5.535-1.824-1.304-6.967-1.768-7.116,1.078-.091,1.741 2.297,3.926 3.594,4.745-2.245-1.112-4.441-3.458-4.887-6.038 3.335-.366 7.087-2.371 10.349-.863" fill="#b4d4cf"/>
 <path d="m146.92 2.673c-1.033 1.992-3.438 6.943-5.462 6.326 1.149-1.978 2.464-6.946 5.462-6.326" fill="#b4d4cf"/>
 <path d="m144.908,84.041-4.313,2.875-2.589-74.466c1.809,0 3.41-.856 3.504,1.086l.334,6.94c.393,8.139.784,16.278 1.177,24.417l1.887,39.148" fill="#b4d4cf"/>
 <path d="m133.12 13.024c1.43 25.297 2.538 50.612 4.025 75.903-2.577-25.249-3.079-50.636-5.462-75.903h1.437" fill="#b4d4cf"/>
 <path d="m102.067,53.851c-1.044,2.234-3.32,1.939-5.318,2.588-3.675,1.193-3.6,2.356-2.589,5.894 1.624,5.684 3.048,11.384 4.377,17.145 .566,2.454.842,4.986 1.224,7.475 .266,1.729-.119,7.053.868,8.301 1.425,1.8 5.505.615 3.877,4.686-.771,1.927-2.516,5.551.508,6.497 2.318.725 1.963,1.431.935,3.481-.979,1.953-.921,3.816 1.06,4.664 2.511,1.075 2.098,3.617 1.234,5.773-1.777,4.437 2.132,3.333 3.024,6.096 .495,1.532-1.126,3.11-1.149,4.599-.05,3.245 3.876,3.281 4.313,5.607 .15.801-1.888,3.159-2.013,4.313-.329,3.039 1.353,3.616 3.77,5.025-.669-.39-.825,7.032-.678,7.913 .415,2.492 1.711,2.141 3.809,2.013-.488,6.08-4.822,7.333 2.637,10.813 1.313.613-1.365,3.568-1.63,4.281-1.117,3.011.316,3.229 3.02,5.031-4.475,2.962.875,9.614-3.451,12.362 1.578,1.079-.167,2.157-.576,3.451-1.629-1.138-3.541-1.787-5.175-2.876-1.904-1.269-3.34-4.722-5.75-4.025 4.429-4.691-6.625-6.118-2.946-11.428 1.983-2.862-2.003-7.16-4.817-7.835 1.73-.771 2.442-2.449 2.084-4.241-.605-3.031-2.125-3.715-4.672-5.534 2.776-.894 2.127-5.036 1.293-7.116-.369-.92-4.427-2.85-4.025-3.449 .562-.84 1.277-1.763 1.726-2.66 1.786-3.578-4.881-2.222-4.563-5.729 .349-3.841 3.009-7.988-2.769-8.646 1.178-2.121 2.697-5.921.144-7.619-1.834-1.22-3.327.188-3.595-2.731 6.559-2.26-.25-6.793-2.875-8.337 1.042-1.36 2.333-3.526 2.301-5.319-.016-.884-.26-1.928-.863-2.587-1.137-1.244-1.727.171-2.73-.719-1.519-1.347-.433-4.232-.719-6.038-.344-2.168-1.383-4.411-1.997-6.556-1.326-4.632-3.092-9.173-4.683-13.72-.893-2.548-1.766-5.127-2.489-7.729-.488-1.755-.127-2.285-1.889-1.911l-6.923,1.469c-5.484,1.164-1.248-10.589.155-12.667 3.035-4.497 6.983-7.695 12.076-9.631 9.637-3.669 21.405.649 26.449,9.626"/>
 <path d="m98.618,52.988-17.826,6.326 1.15-2.875c-2.648-.279-5.128.48-5.606-2.156-.19-1.052.619-3.245 1.293-4.026 2.748-3.185 8.707,2.947 12.652,2.731l-9.489-6.9c3.818-3.609 17.237,1.568 17.826,6.9" fill="#b4d4cf"/>
 <path d="m64.116,64.201c-3.17.842-.468-6.107.245-7.533 1.299-2.597 3.24-5.018 5.218-7.129-3.529,3.85-5.653,9.447-5.463,14.662" fill="#b4d4cf"/>
 <path d="m98.618,88.927c-2.485,1.707-5.722,3.795-8.77,4.313-1.115.189-1.988,1.144-2.371-.147l-1.465-4.946-7.52-25.383c.175-.081 1.249-.516 1.438-.574 2.384,9.538 6.224,18.469 9.775,27.602-.372-7.095-2.867-13.345-4.568-20.144-.46-1.841-1.102-3.738-1.371-5.615-.381-2.665-.555-1.921 1.05-2.992 1.428-.953 3.814-1.228 5.464-1.726l8.338,29.612" fill="#b4d4cf"/>
 <path d="m184.296,62.763c0,2.512-.537,4.459 2.013,5.464 2.842,1.12 7.29-.732 7.476-4.026l18.688,3.451c-1.062,3.58-3.925,6.106-6.757,8.338-1.334,1.051-3.243,1.972-4.313,3.306-1.483,1.852-1.017,2.759-1.294,5.104-.428,3.636-1.729,6.902-2.588,10.423-.38,1.559-.719,3.353-.719,4.958 0,.771-.067,1.562.067,2.323 .425,2.407.03,1.112-.786,2.349-1.279,1.938-3.866,5.308-3.737,8.051 .094,2.003 1.747,3.094 1.367,5.554-.309,2.004-1.739,3.923-2.581,5.75-.905,1.962-1.303,3.521-.66,5.606 .897,2.911 2.247,1.411.149,4.223-2.323,3.115-4.937,6.755-.864,9.919-1.729,1.197-3.014,2.852-3.88,4.743-.393.857-1.038,2.203-1.007,3.163 .044,1.354 1.019,1.56 1.294,2.804 .883,3.98-7.713,8.494-1.294,12.003-1.716.605-2.663,1.971-3.306,3.594-.979,2.47-.546,2.967.934,4.744 1.521,1.827-1.697,3.784-2.803,4.888-2.189,2.188.097,3.51 1.725,5.463-4.763,2.02-4.439,6.433-6.9,10.207-1.6,2.454-3.82,3.493-5.894,1.078-1.721-2.004-.613-4.049-1.294-6.254-.481-1.561-3.642-3.112-2.731-4.025 3.626-3.632 4.545-4.174-.432-7.906 1.113-1.261 5.847-5.221 3.151-7.108-2.766-1.938-2.678-1.941-.636-4.392 1.038-1.246 2.271-3.622 1.797-5.319-.487-1.744-4.676-2.602-3.737-4.744 .326-.744 3.102-1.621 3.81-2.804 .92-1.534.089-3.464 1.078-4.672l-4.025-2.875c2.715-.692 4.681-4.182 4.313-6.9-.305-2.247-.822-2.323-2.843-3.503-1.221-.712-1.24-1.393.184-1.96 5.428-2.16 5.34-10.757-.216-12.938 1.295-2.614 4.071-4.108 4.888-6.972 .917-3.216-4.694-6.363-3.805-7.444 .895-1.086 3.444-3.169 3.539-4.591 .137-2.042.274-4.052.554-6.079 .488-3.548.893-7.148 1.017-10.73 .257-7.406-.752-14.402-5.799-20.169-3.999-4.57.342-3.927 4.097-3.51l12.76,1.415"/>
 <path d="m182.859,69.089c2.862.293 7.114,2.484 9.92,1.149 1.813-.862 2.083-2.806 4.313-3.306 1.446-.325 3.319.178 4.743.431 1.925.342 8.642.449 6.161,2.627l-6.456,5.669c-1.048.919-2.938,3.388-4.305,3.779-1.425.408-4.688-.938-6.113-1.223l-7.86-1.572c-1.305-.261-2.237-8.307-3.07-9.835-.843-1.547-1.979-3.116-3.854-3.403-1.141-.174-4.69-.693-4.69.578 0,4.268 3.265,8.205 4.889,12.003l-7.476-12.65c4.707.003 13.176-.581 13.798,5.753" fill="#b4d4cf"/>
 <path d="m76.479,74.552c-.67-2.587-1.341-5.175-2.012-7.762 .844,2.41 2.385,5.131 2.012,7.762" fill="#b4d4cf"/>
 <path d="m178.546,79.44c-.191,3.45-.383,6.9-.574,10.351 .192-3.451.383-6.901.574-10.351" fill="#b4d4cf"/>
 <path d="m184.296,80.014c-.24,5.863-2.72,11.995-.862,17.826 1.529-3.82 1.996-8.302 2.337-12.378 .155-1.847-.453-4.955 1.761-4.771l9.129.76-2.834,20.4c-.19,1.371-15.682,2.572-17.868,2.889 4.791-2.326 5.154-7.337 5.392-12.075 .148-2.992-1.478-13.67 2.945-12.651" fill="#b4d4cf"/>
 <path d="m144.044,94.39-4.601,2.875c2.149-1.81-.51-2-.862-3.449-.684-2.809 2.687-3.593 4.889-4.888 .946,1.744.693,3.578.574,5.462" fill="#b4d4cf"/>
 <path d="m262.212,93.24c4.275,2.354 13.892,16.144 6.9,19.552-2.063,1.005-4.599-.543-6.612.144-1.894.646-1.939,2.906-2.732,4.888-1.529,3.824-3.717,7.55-4.455,11.645-.365,2.024-.399,4.072.215,6.038 .573,1.835-1.589,1.725-2.947,2.875-2.389,2.021-3.078,4.438-2.3,7.188 1.153,4.07.362,2.305-2.587,5.319-3.403,3.479-2.216,6.432-.719,10.494-4.059.102-5.388,3.267-6.183,6.757-.371,1.629-.509,1.938-.144,3.449 .22.909 1.15,1.351 1.15,2.443 0,2.857-3.754,1.351-4.6,3.883-.425,1.271-.623,2.683-1.223,3.881-.961,1.923.066,2.62 1.222,4.6-3.003.524-5.263,4.293-5.606,7.188-.199,1.677.53,3.222-.032,5.091-.423,1.405-2.059,2.879-2.976,4.025-1.127,1.41-1.778,2.878-1.629,4.669 .208,2.505.941,2.338-1.4,3.897-3.521,2.344-4.278,5.21-1.295,8.194-5.305,1.146-6.374,5.863-10.494,8.481-5.403,3.435-7.106-5.737-11.069-7.906 1.647-.979 4.151-1.705 5.176-3.451 1.791-3.052-1.883-5.371-3.738-7.474 1.603-1.205 3.752-2.373 4.745-4.17 1.561-2.822-.528-5.086-1.87-7.618 2.585-.755 7.299-3.661 6.901-6.9-.173-1.408-2.577-3.814-3.45-4.889 1.974-1.159 5.055-2.113 6.325-4.169 1.851-2.993-.926-6.156-2.301-8.769 4.893-3.036 8.359-3.479 4.021-9.553-1.256-1.758 6.789-4.976 5.754-9.279-.308-1.28-1.17-1.813-1.724-2.875s-1.218.266-1.007-1.582c.146-1.28 1.995-2.22 3.02-2.731 2.222-1.11 4.449-3.127 3.162-5.895-.854-1.838-2.325-1.597-3.811-2.587-2.014-1.343 2.897-3.932 3.588-4.375 1.66-1.068 1.793-4.052 2.302-5.862 2.042-7.262 4.085-14.524 6.127-21.786 .292-1.039-2.862-3.316-3.679-4.131-2.539-2.538-1.887-5.008.562-7.213 4.016-3.615 10.774-5.462 16.043-5.367 .972.018 3.61-.097 4.456.432 .939.587.377,2.028 1.869,2.587 2.539.951 4.875-2.121 7.045.862"/>
 <path d="m244.961,91.802c-1.654.629-4.842,3.229-6.325,2.013 1.901-1.475 3.987-1.778 6.325-2.013" fill="#b4d4cf"/>
 <path d="m93.155,102.729-3.451.862v-1.438c1.605.75 1.522-.948 2.443-1.87 .196-.196-.324-2.425.001-3.162 .507-1.149 1.935-1.865 2.946-2.444 2.443-1.398 6.029-1.538 5.104,2.587-.614,2.74-5.049,3.942-7.043,5.465" fill="#b4d4cf"/>
 <path d="m259.194,99.278c-3.49.586-1.563-3.675-2.443-5.462 2.989-.126 2.284,3.804 2.443,5.462" fill="#b4d4cf"/>
 <path d="m41.403,94.39c-5.007,6.375-7.161,13.074-4.225,21.084 2.597,7.085 6.355,13.855 8.25,21.181 .508,1.963.119,2.049 1.726,3.594 .983.945 2.759,1.529 3.162,3.019 .519,1.921-.854,2.676.288,4.672 .835,1.462 2.217,2.682 2.875,4.241 .483,1.146-.109,3.625.288,4.313 .752,1.301 3.191.654 4.025,2.875 1.189,3.168-1.785,8.243 3.451,8.913-2.158,3.828.858,6.32 2.811,9.249 2.428,3.644-.422,6.864 3.586,10.303 1.832,1.572 1.935,2.798 2.516,4.888 .478,1.718-1.503,1.261.703,2.363 .739.369 1.272,1.154 1.64,1.891 1.68,3.363-.146,9.278 4.845,10.121-3.07,4.354 3.755,7.663 3.88,11.789 .097,3.187-1.136,4.395 3.02,5.462-5.225,4.84 5.695,6.757.863,10.782-1.509,1.257.549,4.788-.432,6.756-3.103,6.227-13.393-10.146-14.412-12.313-1.098-2.333-2.288-4.459-3.845-6.52-.601-.795-1.897-1.676-1.539-2.678 .49-1.373.776-2.52.03-3.863-1.011-1.821-2.958-2.816-4.395-4.251-2.687-2.684.138-3.802-.493-6.314-.31-1.236-1.059-2.04-1.941-2.875-.31-.294-1.03-.547-1.437-.647-1.593-.395-.118-.961-.432-2.228-1.163-4.691-7.039-7.313-5.319-12.65-7.491.138-.608-10.476-8.05-10.927 2.929-5.531-2.541-5.604-4.745-9.199-1.324-2.16.779-3.931.145-5.464-.462-1.117-1.476-1.432-2.301-.574-.92-1.879-.354-4.194-1.293-6.038-.537-1.056-1.111-1.161-1.868-2.014-1-1.126-1.469-1.158-2.182-3.12-1.837-5.055-4.147-9.851-6.371-14.741-1.117-2.457-2.384-4.846-3.524-7.296-.577-1.24-1.98-5.776-3.154-6.307l-17.547-7.924c11.291-11.783 25.364-17.608 41.401-19.553"/>
 <path d="m260.775,102.729c.91.064 1.621-.476 2.014-1.438 1.579,1.284 1.765,3.667 3.449,4.887 1.003-2.527-.641-5.384-2.012-7.476 2.168,3.403 4.029,6.957 4.887,10.926-10.907-4.957-22.199-8.483-33.926-10.926 6.655-1.57 15.118,6.946 16.675-3.45-.02,5.033 4.779,6.68 8.913,7.477" fill="#b4d4cf"/>
 <path d="m37.952 97.265c-1.359 2.508-3.806 15.112-6.9 14.376 1.656-4.749-1.266-14.998 6.9-14.376" fill="#b4d4cf"/>
 <path d="m140.02,106.178c0-1.91-1.313-4.323-.432-5.75 .876-1.419 3.391-1.129 4.456-2.587 .506,3.331.021,7.733-4.024,8.337" fill="#dcecf2"/>
 <path d="m27.602 113.08c-1.982-3.534-3.866-7.747-4.744-11.715-0.319-1.441 3.554-1.838 4.744-2.085v13.8" fill="#b4d4cf"/>
 <path d="m102.643,107.616-10.351,6.326c.482-1.285 1.545-2.1 2.156-3.306 .399-.788.666-1.645.792-2.517 .084-.585-.725-2.326-.647-2.515 .509-1.229 4.121-2.993 5.463-2.732 2.243.436 2.527,2.84 2.587,4.744" fill="#dcecf2"/>
 <path d="m23.289,114.516c-3.75-1.928-6.523-6.446-8.914-9.775 1.892-.43 2.507-1.773 4.313-.574 2.441,1.621 4.341,7.598 4.601,10.349" fill="#b4d4cf"/>
 <path d="m175.958,117.966c1.198-1.303 2.485-2.484 3.738-3.737 1.701-1.703 1.576-3.047 2.443-5.031 .152-.349-.435-1.537.012-1.606l3.915-.611c1.595-.25 4.953-1.721 5.316.167 2.273,11.815-8.423,7.672-15.424,10.818" fill="#dcecf2"/>
 <path d="m144.908,107.042c.115,3.275.051,8.579-4.313,8.912-.246-3.905-1.186-8.731 4.313-8.912" fill="#b4d4cf"/>
 <path d="m251,112.504c-1.795,6.726-6.447,14.128-5.462,21.276 3.953-3.558 4.595-8.394 6.043-13.46 .72-2.52 1.2-5.285 2.295-7.672 .572-1.248-.035-2.156 1.473-2.156h4.852l-2.3-2.299c1.825.932 3.832,1.601 5.75,2.299-5.65.786-8.004,6.198-9.564,11.106-.784,2.463-1.477,4.963-2.224,7.438-.557,1.848-2.888,5.614-.862,6.757-5.242,2.837-12.668,1.438-18.4,1.438 .901-3.144 10.275-1.129 5.836-5.128-.107-.097 3.97-10.741 4.401-12.294 1.189-4.282 2.321-8.513 4.511-12.407 1.135-2.023 5.786,2.077 3.651,5.102" fill="#b4d4cf"/>
 <path d="m243.524,108.191-6.877,20.632c-.03.09-.03.09 0,0 2.292-6.877 4.585-13.754 6.877-20.632" fill="#b4d4cf"/>
 <path d="m17.826 117.97c-4.004-1.256-9.499-3.158-11.788-6.9 4.623 1.54 8.15 3.659 11.788 6.9" fill="#b4d4cf"/>
 <path d="m104.94 117.39c-3.038 2.518-7.463 2.756-10.35 5.464 4.467-2.667 0.992-9.58 6.469-11.357 4.84-1.571 2.057 3.559 3.881 5.893" fill="#b4d4cf"/>
 <path d="m33.64,114.516c1.719,6.533 10.237,16.343 7.26,23.146-.713,1.629-1.631,2.593-2.948,2.587-.176-.001-.774-2.577-1.582-1.365-.965,1.448 2.687,3.733-.432,4.672-3.363-8.661-7.074-17.006-11.787-25.013 2.068-1.543 3.879,4.573 4.823,6.303 1.597,2.925 2.83,6.157 4.665,8.935-1.029-6.178-3.632-11.862-5.462-17.826 1.784-.447 3.826-.64 5.463-1.439" fill="#b4d4cf"/>
 <path d="m145.482,123.429-6.9,4.313c6.049-.819-.774-8.813 4.979-11.026 2.189-.843 1.921,5.566 1.921,6.713" fill="#dcecf2"/>
 <path d="m97.18,131.766v-1.438c1.822.432 3.36-1.766 3.45-3.449 .105-1.965-1.594-2.337.432-4.313 1.155-1.126 3.148-1.597 4.456-2.587 4.486,6.734-2.449,10.313-8.338,11.787" fill="#dcecf2"/>
 <path d="m186.309,130.329c-4.265.221-8.001,2.711-12.363,2.014 3.508.562 5.16-4.976 6.038-7.476 .758-2.157-.55-2.91 2.301-3.882 1.816-.62 3.731.044 5.462-1.005 1.331,3.234.163,7.384-1.438,10.349" fill="#b4d4cf"/>
 <path d="m140.02,137.23c5.294.697-2.584-8.949 2.946-9.986 3.016-.565 3.035,2.882 2.372,5.53-.648,2.589-2.703,4.202-5.318,4.456" fill="#b4d4cf"/>
 <path d="m108.969,137.23c-1.713,1.311-7.99,5.638-9.777,4.313 5.073.156.731-9.133 5.319-10.927 4.183-1.635 4.567,3.806 4.458,6.614" fill="#b4d4cf"/>
 <path d="m186.309,134.642c-.276,2.412-2.938,5.809 0,7.476l-13.801,1.438c2.132.669 2.445-.643 3.45-2.012 .534-.728 2.309-2.365 2.588-2.876 1.126-2.058-.601-2.77 2.301-3.738 1.653-.553 3.734-.038 5.462-.288" fill="#dcecf2"/>
 <path d="m146.345,144.13-6.325,4.313 3.45-3.45c-1.01-.416-1.812-1.352-2.085-2.443-.722-2.888 2.016-3.832 4.097-5.319 .041,2.332.875,4.535.863,6.899" fill="#dcecf2"/>
 <path d="m245.538,147.58h1.438c-4.572,2.768-11.725,1.858-16.677.863 2.198-1.695 4.8.572 6.9-1.438-2.528-1.699-1.398-6.831 1.438-7.764 1.715-.564 5.763,1.067 7.583,1.404 .43.08-.576,6.082-.682,6.935" fill="#b4d4cf"/>
 <path d="m46.29,144.993-6.9,9.488c-.605-3.797-.503-9.991 2.3-13.082 3.442-3.796 3.25,1.439 4.6,3.594" fill="#b4d4cf"/>
 <path d="m111.84 147c-2.473 2.2-5.811 4.036-9.201 4.025 5.447-1.388 0.179-9.896 5.516-10.713 3.934-0.602 2.132 4.563 3.685 6.688" fill="#dcecf2"/>
 <path d="m183.434,146.142c-.295,2.557-.349,6.354-2.875,7.906-2.377,1.46-6.976.122-9.488-.143 6.696.606 5.585-8.141 12.363-7.763" fill="#b4d4cf"/>
 <path d="m47.44 158.79-4.599 4.025c1.401-5.443-0.023-11.053 4.599-15.239 1.854 3.538 3.679 8.223 0 11.214" fill="#dcecf2"/>
 <path d="m146.34 148.44c0 4.471-0.174 10.804-6.325 10.351 1.387-0.68 2.768-1.416 4.024-2.301-4.456-2.035-1.742-7.836 2.301-8.05" fill="#b4d4cf"/>
 <path d="m114.431,157.356-8.337,4.025v-1.438c1.555.546 2.687-1.253 2.875-2.588 .224-1.591-1.228-2.035 0-4.026 .776-1.259 2.218-2.123 3.449-2.875 .683,2.301 1.36,4.588 2.013,6.902" fill="#b4d4cf"/>
 <path d="m241.511,159.944c.771.543-.972.846-2.012,1.149-1.527.446-3.17.441-4.744.431-2.819-.02-5.652-.143-8.481-.143 2.288-1.54 5.696.656 7.476-2.014-3.527.12-1.765-6.899-.402-6.899 1.333,0 6.38-.818 7.302,0 .947.842.702,6.099.861,7.476" fill="#dcecf2"/>
 <path d="m51.752,166.268-3.449,3.451c-1.675-5.016-.291-8.815 3.449-12.363 .984,2.728 3.843,6.976 0,8.912" fill="#b4d4cf"/>
 <path d="m181.421,157.356c-.111,2.166-3.363,7.028.575,7.475-3.45.288-6.9.575-10.351.863 4.911-.994 3.886-8.994 9.776-8.338" fill="#dcecf2"/>
 <path d="m141.458,169.719 3.45-3.451c-1.004-.289-1.688-.658-2.013-1.293-.555-1.084-.06-4.089.646-5.032 2.125-2.839 2.784,3.204 2.659,4.457-.283,2.854-1.695,5.079-4.742,5.319" fill="#dcecf2"/>
 <path d="m110.406,171.732h-1.438c2.285-1.326 2.54-12.478 6.324-10.927 1.86.763.881,5.444.288,6.614-.998,1.97-3.162,3.537-5.174,4.313" fill="#dcecf2"/>
 <path d="m236.62 164.26c2.722 3.089-2.971 7.043 0 9.487-2.761 2.091-11.249 1.2-14.376 0 2.887-0.177 5.695 1.234 8.05-1.149-2.899-1.933-4.677-3.187-1.94-6.47 2.092-2.51 5.367-2.124 8.266-1.868" fill="#b4d4cf"/>
 <path d="m53.766,177.195c-.98.791-2.078,1.304-2.875,2.299-.836-4.63.802-10.617 4.313-13.8 2.817,4.132 1.859,7.828-1.438,11.501" fill="#dcecf2"/>
 <path d="m179.41,174.607c-2.849.899-5.915,1.766-8.913,1.438 2.825-.396 5.116-8.556 7.476-7.764s-1.669,4.955 1.437,6.326" fill="#b4d4cf"/>
 <path d="m146.919,178.632c-1.029.242-2.083.727-2.875,1.438 .614-2.806-2.219-7.163.432-9.057 2.931-2.094 2.186,6.009 2.443,7.619" fill="#b4d4cf"/>
 <path d="m118.74 175.18c-1.466 3.016-4.511 4.976-7.763 5.463 2.198-1.987 5.868-13.545 7.763-5.463" fill="#b4d4cf"/>
 <path d="m57.791,186.969c-.597.543-1.354.968-2.012,1.438 .982-4.879-1.784-9.975 2.875-13.8 2.58,4.331 3.36,8.772-.863,12.362" fill="#b4d4cf"/>
 <path d="m231.736,177.195c2.57,2.933-2.865,7.418.863,9.199-4.104.942-10.146,1.822-13.801-.862 2.323.374 5.316.487 7.476-.575-6.329-1.776-.151-10.269 5.462-7.762" fill="#dcecf2"/>
 <path d="m176.54 178.63c1.295 4.261-2.13 5.277-5.464 6.324-0.153-2.929 3.174-5.179 5.464-6.324" fill="#dcecf2"/>
 <path d="m143.47,191.858c5.4-.333-2.642-8.812 3.449-10.351 .509,3.509 1.932,10.032-3.449,10.351" fill="#dcecf2"/>
 <path d="m62.103,197.321c-.798.465-1.498.384-2.012,1.438 0-4.914-.875-10.667 2.587-14.664 2.975,3.951 3.916,9.988-.575,13.226" fill="#dcecf2"/>
 <path d="m117.31 185.53c-1.795-0.289-0.104-2.942 0 0" fill="#dcecf2"/>
 <path d="m174.52 186.97c-2.233 2.065-1.952 5.664-2.875 8.338-2.83-2.528 2.713-5.185 1.438-8.338h1.437" fill="#b4d4cf"/>
 <path d="m228.287,191.858c-.032,1.835-3.482,4.333-.575,5.463h-13.227c1.812-1.252 3.809-.432 5.822-.432 2.527,0 1.929-3.566-.359-3.02 .647-2.083.492-4.109 2.875-4.887 2.192-.715 4.861.722 5.464,2.876" fill="#b4d4cf"/>
 <path d="m145.48 201.34h-1.438c1.899-1.099 3.426-1.171 1.653-2.947-1.895-1.898-0.983-4.929 1.222-5.966 0.627 2.391 2.273 8.226-1.437 8.913" fill="#b4d4cf"/>
 <path d="m67.565,203.645-4.025,2.589c1.177-4.313.807-7.921 3.451-11.789 2.173,2.335 4.271,7.193.574,9.2" fill="#b4d4cf"/>
 <path d="m224.26,202.783c-1.131,1.424-2.497,4.803-1.438,6.326h-12.362c2.559,0 5.279.102 7.476-1.438-1.631-1.075-1.657-5.721 0-6.901 1.416-1.009 6.153-.041 6.324,2.013" fill="#dcecf2"/>
 <path d="m72.454 212.56-3.451 3.45c0.158-4.127-1.475-9.1 2.013-12.363 1.068 2.618 4.515 6.448 1.438 8.913" fill="#b4d4cf"/>
 <path d="m144.04 214c4.748-2.069-0.808-7.646 2.875-10.351 0.581 4.179 1.817 8.154-2.875 10.351" fill="#dcecf2"/>
 <path d="m220.811,211.696c-.78,2.534-3.299,5.125-1.438,7.763-4.117-.746-8.327,1.766-12.364.575 2.716-.987 6.055-.544 8.339-2.588-6.546-5.239 1.27-5.149 5.463-5.75" fill="#b4d4cf"/>
 <path d="m73.029,224.922-.575.573c2.977-3.213-1.869-8.977 2.251-12.64 1.573-1.397 2.499,4.282 2.133,5.381-.805,2.425-2.32,4.629-3.809,6.686" fill="#dcecf2"/>
 <path d="m148.933,217.446-2.588,2.013c.1-1.356-1.074-4.179.431-5.032 1.599-.909 2.218,1.664 2.157,3.019" fill="#b4d4cf"/>
 <path d="m78.492,221.471c.733,2.524 1.315,11.3-3.451,10.351 1.046-3.193.317-8.237 3.451-10.351" fill="#b4d4cf"/>
 <path d="m149.794,222.909-.861-.862-2.014,2.876c-.513-.14-1.46-.38-2.012-.576 .76-1.145 5.784-5.361 4.887-1.438" fill="#b4d4cf"/>
 <path d="m213.047,226.934c-1.66.657-3.169-.25-2.73-2.157 .403-1.756 2.753-2.071 4.168-2.73 .362,1.614-.233,3.722-1.438,4.887" fill="#dcecf2"/>
 <path d="m81.367,235.271-2.013,2.014 1.438-6.9c.173,1.692 2.283,3.442.575,4.886" fill="#b4d4cf"/>
 <path d="m81.941,240.16c-1.145-.854-.177-2.143.863-2.875 .134,1.008.116,2.26-.863,2.875" fill="#dcecf2"/>
</svg>
